<svg width="246" height="80" viewBox="0 0 246 80" fill="none" xmlns="http://www.w3.org/2000/svg">
<g filter="url(#filter0_d_2017_11)">
<rect x="5" y="1" width="240" height="72" rx="10" fill="white"/>
<rect x="4.5" y="0.5" width="241" height="73" rx="10.5" stroke="#040916"/>
</g>
<path d="M37.0842 45L29.8362 28.2H34.0362L40.3722 43.08H37.9002L44.3322 28.2H48.1962L40.9242 45H37.0842ZM48.2258 45V32.088H51.9698V45H48.2258ZM50.0978 30.288C49.4098 30.288 48.8498 30.088 48.4178 29.688C47.9858 29.288 47.7698 28.792 47.7698 28.2C47.7698 27.608 47.9858 27.112 48.4178 26.712C48.8498 26.312 49.4098 26.112 50.0978 26.112C50.7858 26.112 51.3458 26.304 51.7778 26.688C52.2098 27.056 52.4258 27.536 52.4258 28.128C52.4258 28.752 52.2098 29.272 51.7778 29.688C51.3618 30.088 50.8018 30.288 50.0978 30.288ZM60.5326 45.192C59.0606 45.192 57.7646 44.904 56.6446 44.328C55.5406 43.752 54.6846 42.968 54.0766 41.976C53.4686 40.968 53.1646 39.824 53.1646 38.544C53.1646 37.248 53.4606 36.104 54.0526 35.112C54.6606 34.104 55.4846 33.32 56.5246 32.76C57.5646 32.184 58.7406 31.896 60.0526 31.896C61.3166 31.896 62.4526 32.168 63.4606 32.712C64.4846 33.24 65.2926 34.008 65.8846 35.016C66.4766 36.008 66.7726 37.2 66.7726 38.592C66.7726 38.736 66.7646 38.904 66.7486 39.096C66.7326 39.272 66.7166 39.44 66.7006 39.6H56.2126V37.416H64.7326L63.2926 38.064C63.2926 37.392 63.1566 36.808 62.8846 36.312C62.6126 35.816 62.2366 35.432 61.7566 35.16C61.2766 34.872 60.7166 34.728 60.0766 34.728C59.4366 34.728 58.8686 34.872 58.3726 35.16C57.8926 35.432 57.5166 35.824 57.2446 36.336C56.9726 36.832 56.8366 37.424 56.8366 38.112V38.688C56.8366 39.392 56.9886 40.016 57.2926 40.56C57.6126 41.088 58.0526 41.496 58.6126 41.784C59.1886 42.056 59.8606 42.192 60.6286 42.192C61.3166 42.192 61.9166 42.088 62.4286 41.88C62.9566 41.672 63.4366 41.36 63.8686 40.944L65.8606 43.104C65.2686 43.776 64.5246 44.296 63.6286 44.664C62.7326 45.016 61.7006 45.192 60.5326 45.192ZM70.6628 45L66.0068 32.088H69.5348L73.3988 43.2H71.7188L75.7508 32.088H78.9188L82.8308 43.2H81.1508L85.1348 32.088H88.4468L83.7668 45H80.1428L76.7108 35.472H77.8148L74.2628 45H70.6628ZM92.4002 45L99.8882 28.2H103.728L111.24 45H107.16L101.016 30.168H102.552L96.3842 45H92.4002ZM96.1442 41.4L97.1762 38.448H105.816L106.872 41.4H96.1442ZM111.399 45V27.192H115.143V45H111.399ZM117.298 45V27.192H121.042V45H117.298ZM128.938 45V28.2H136.21C137.714 28.2 139.01 28.448 140.098 28.944C141.186 29.424 142.026 30.12 142.618 31.032C143.21 31.944 143.506 33.032 143.506 34.296C143.506 35.544 143.21 36.624 142.618 37.536C142.026 38.448 141.186 39.152 140.098 39.648C139.01 40.128 137.714 40.368 136.21 40.368H131.098L132.826 38.616V45H128.938ZM132.826 39.048L131.098 37.2H135.994C137.194 37.2 138.09 36.944 138.682 36.432C139.274 35.92 139.57 35.208 139.57 34.296C139.57 33.368 139.274 32.648 138.682 32.136C138.09 31.624 137.194 31.368 135.994 31.368H131.098L132.826 29.52V39.048ZM144.674 45V32.088H148.25V35.736L147.746 34.68C148.13 33.768 148.746 33.08 149.594 32.616C150.442 32.136 151.474 31.896 152.69 31.896V35.352C152.53 35.336 152.386 35.328 152.258 35.328C152.13 35.312 151.994 35.304 151.85 35.304C150.826 35.304 149.994 35.6 149.354 36.192C148.73 36.768 148.418 37.672 148.418 38.904V45H144.674ZM159.646 45.192C158.27 45.192 157.046 44.904 155.974 44.328C154.918 43.752 154.078 42.968 153.454 41.976C152.846 40.968 152.542 39.824 152.542 38.544C152.542 37.248 152.846 36.104 153.454 35.112C154.078 34.104 154.918 33.32 155.974 32.76C157.046 32.184 158.27 31.896 159.646 31.896C161.006 31.896 162.222 32.184 163.294 32.76C164.366 33.32 165.206 34.096 165.814 35.088C166.422 36.08 166.726 37.232 166.726 38.544C166.726 39.824 166.422 40.968 165.814 41.976C165.206 42.968 164.366 43.752 163.294 44.328C162.222 44.904 161.006 45.192 159.646 45.192ZM159.646 42.12C160.27 42.12 160.83 41.976 161.326 41.688C161.822 41.4 162.214 40.992 162.502 40.464C162.79 39.92 162.934 39.28 162.934 38.544C162.934 37.792 162.79 37.152 162.502 36.624C162.214 36.096 161.822 35.688 161.326 35.4C160.83 35.112 160.27 34.968 159.646 34.968C159.022 34.968 158.462 35.112 157.966 35.4C157.47 35.688 157.07 36.096 156.766 36.624C156.478 37.152 156.334 37.792 156.334 38.544C156.334 39.28 156.478 39.92 156.766 40.464C157.07 40.992 157.47 41.4 157.966 41.688C158.462 41.976 159.022 42.12 159.646 42.12ZM166.949 49.848C166.373 49.848 165.821 49.784 165.293 49.656C164.765 49.544 164.317 49.368 163.949 49.128L164.957 46.416C165.389 46.72 165.917 46.872 166.541 46.872C167.005 46.872 167.373 46.712 167.645 46.392C167.933 46.088 168.077 45.624 168.077 45V32.088H171.821V44.976C171.821 46.464 171.397 47.648 170.549 48.528C169.701 49.408 168.501 49.848 166.949 49.848ZM169.949 30.288C169.261 30.288 168.701 30.088 168.269 29.688C167.837 29.288 167.621 28.792 167.621 28.2C167.621 27.608 167.837 27.112 168.269 26.712C168.701 26.312 169.261 26.112 169.949 26.112C170.637 26.112 171.197 26.304 171.629 26.688C172.061 27.056 172.277 27.536 172.277 28.128C172.277 28.752 172.061 29.272 171.629 29.688C171.213 30.088 170.653 30.288 169.949 30.288ZM180.356 45.192C178.884 45.192 177.588 44.904 176.468 44.328C175.364 43.752 174.508 42.968 173.9 41.976C173.292 40.968 172.988 39.824 172.988 38.544C172.988 37.248 173.284 36.104 173.876 35.112C174.484 34.104 175.308 33.32 176.348 32.76C177.388 32.184 178.564 31.896 179.876 31.896C181.14 31.896 182.276 32.168 183.284 32.712C184.308 33.24 185.116 34.008 185.708 35.016C186.3 36.008 186.596 37.2 186.596 38.592C186.596 38.736 186.588 38.904 186.572 39.096C186.556 39.272 186.54 39.44 186.524 39.6H176.036V37.416H184.556L183.116 38.064C183.116 37.392 182.98 36.808 182.708 36.312C182.436 35.816 182.06 35.432 181.58 35.16C181.1 34.872 180.54 34.728 179.9 34.728C179.26 34.728 178.692 34.872 178.196 35.16C177.716 35.432 177.34 35.824 177.068 36.336C176.796 36.832 176.66 37.424 176.66 38.112V38.688C176.66 39.392 176.812 40.016 177.116 40.56C177.436 41.088 177.876 41.496 178.436 41.784C179.012 42.056 179.684 42.192 180.452 42.192C181.14 42.192 181.74 42.088 182.252 41.88C182.78 41.672 183.26 41.36 183.692 40.944L185.684 43.104C185.092 43.776 184.348 44.296 183.452 44.664C182.556 45.016 181.524 45.192 180.356 45.192ZM194.009 45.192C192.617 45.192 191.377 44.912 190.289 44.352C189.201 43.776 188.345 42.984 187.721 41.976C187.113 40.968 186.809 39.824 186.809 38.544C186.809 37.248 187.113 36.104 187.721 35.112C188.345 34.104 189.201 33.32 190.289 32.76C191.377 32.184 192.617 31.896 194.009 31.896C195.369 31.896 196.553 32.184 197.561 32.76C198.569 33.32 199.313 34.128 199.793 35.184L196.889 36.744C196.553 36.136 196.129 35.688 195.617 35.4C195.121 35.112 194.577 34.968 193.985 34.968C193.345 34.968 192.769 35.112 192.257 35.4C191.745 35.688 191.337 36.096 191.033 36.624C190.745 37.152 190.601 37.792 190.601 38.544C190.601 39.296 190.745 39.936 191.033 40.464C191.337 40.992 191.745 41.4 192.257 41.688C192.769 41.976 193.345 42.12 193.985 42.12C194.577 42.12 195.121 41.984 195.617 41.712C196.129 41.424 196.553 40.968 196.889 40.344L199.793 41.928C199.313 42.968 198.569 43.776 197.561 44.352C196.553 44.912 195.369 45.192 194.009 45.192ZM206.096 45.192C204.576 45.192 203.392 44.808 202.544 44.04C201.696 43.256 201.272 42.096 201.272 40.56V29.232H205.016V40.512C205.016 41.056 205.16 41.48 205.448 41.784C205.736 42.072 206.128 42.216 206.624 42.216C207.216 42.216 207.72 42.056 208.136 41.736L209.144 44.376C208.76 44.648 208.296 44.856 207.752 45C207.224 45.128 206.672 45.192 206.096 45.192ZM199.28 35.256V32.376H208.232V35.256H199.28ZM214.27 45.192C213.166 45.192 212.102 45.064 211.078 44.808C210.07 44.536 209.27 44.2 208.678 43.8L209.926 41.112C210.518 41.48 211.214 41.784 212.014 42.024C212.83 42.248 213.63 42.36 214.414 42.36C215.278 42.36 215.886 42.256 216.238 42.048C216.606 41.84 216.79 41.552 216.79 41.184C216.79 40.88 216.646 40.656 216.358 40.512C216.086 40.352 215.718 40.232 215.254 40.152C214.79 40.072 214.278 39.992 213.718 39.912C213.174 39.832 212.622 39.728 212.062 39.6C211.502 39.456 210.99 39.248 210.526 38.976C210.062 38.704 209.686 38.336 209.398 37.872C209.126 37.408 208.99 36.808 208.99 36.072C208.99 35.256 209.222 34.536 209.686 33.912C210.166 33.288 210.854 32.8 211.75 32.448C212.646 32.08 213.718 31.896 214.966 31.896C215.846 31.896 216.742 31.992 217.654 32.184C218.566 32.376 219.326 32.656 219.934 33.024L218.686 35.688C218.062 35.32 217.43 35.072 216.79 34.944C216.166 34.8 215.558 34.728 214.966 34.728C214.134 34.728 213.526 34.84 213.142 35.064C212.758 35.288 212.566 35.576 212.566 35.928C212.566 36.248 212.702 36.488 212.974 36.648C213.262 36.808 213.638 36.936 214.102 37.032C214.566 37.128 215.07 37.216 215.614 37.296C216.174 37.36 216.734 37.464 217.294 37.608C217.854 37.752 218.358 37.96 218.806 38.232C219.27 38.488 219.646 38.848 219.934 39.312C220.222 39.76 220.366 40.352 220.366 41.088C220.366 41.888 220.126 42.6 219.646 43.224C219.166 43.832 218.47 44.312 217.558 44.664C216.662 45.016 215.566 45.192 214.27 45.192Z" fill="black"/>
<defs>
<filter id="filter0_d_2017_11" x="0.6" y="0" width="245.4" height="79.4" filterUnits="userSpaceOnUse" color-interpolation-filters="sRGB">
<feFlood flood-opacity="0" result="BackgroundImageFix"/>
<feColorMatrix in="SourceAlpha" type="matrix" values="0 0 0 0 0 0 0 0 0 0 0 0 0 0 0 0 0 0 127 0" result="hardAlpha"/>
<feOffset dx="-2" dy="4"/>
<feGaussianBlur stdDeviation="0.7"/>
<feComposite in2="hardAlpha" operator="out"/>
<feColorMatrix type="matrix" values="0 0 0 0 0 0 0 0 0 0 0 0 0 0 0 0 0 0 0.25 0"/>
<feBlend mode="normal" in2="BackgroundImageFix" result="effect1_dropShadow_2017_11"/>
<feBlend mode="normal" in="SourceGraphic" in2="effect1_dropShadow_2017_11" result="shape"/>
</filter>
</defs>
</svg>
