<svg width="220" height="61" viewBox="0 0 220 61" fill="none" xmlns="http://www.w3.org/2000/svg">
<rect y="0.675537" width="220" height="60" rx="10" fill="#183BAE"/>
<path d="M33.2166 37.6755L27.1766 23.6755H30.6766L35.9566 36.0755H33.8966L39.2566 23.6755H42.4766L36.4166 37.6755H33.2166ZM42.5013 37.6755V26.9155H45.6213V37.6755H42.5013ZM44.0613 25.4155C43.488 25.4155 43.0213 25.2489 42.6613 24.9155C42.3013 24.5822 42.1213 24.1689 42.1213 23.6755C42.1213 23.1822 42.3013 22.7689 42.6613 22.4355C43.0213 22.1022 43.488 21.9355 44.0613 21.9355C44.6347 21.9355 45.1013 22.0955 45.4613 22.4155C45.8213 22.7222 46.0013 23.1222 46.0013 23.6155C46.0013 24.1355 45.8213 24.5689 45.4613 24.9155C45.1147 25.2489 44.648 25.4155 44.0613 25.4155ZM52.757 37.8355C51.5303 37.8355 50.4503 37.5955 49.517 37.1155C48.597 36.6355 47.8836 35.9822 47.377 35.1555C46.8703 34.3155 46.617 33.3622 46.617 32.2955C46.617 31.2155 46.8636 30.2622 47.357 29.4355C47.8636 28.5955 48.5503 27.9422 49.417 27.4755C50.2836 26.9955 51.2636 26.7555 52.357 26.7555C53.4103 26.7555 54.357 26.9822 55.197 27.4355C56.0503 27.8755 56.7236 28.5155 57.217 29.3555C57.7103 30.1822 57.957 31.1755 57.957 32.3355C57.957 32.4555 57.9503 32.5955 57.937 32.7555C57.9236 32.9022 57.9103 33.0422 57.897 33.1755H49.157V31.3555H56.257L55.057 31.8955C55.057 31.3355 54.9436 30.8489 54.717 30.4355C54.4903 30.0222 54.177 29.7022 53.777 29.4755C53.377 29.2355 52.9103 29.1155 52.377 29.1155C51.8436 29.1155 51.3703 29.2355 50.957 29.4755C50.557 29.7022 50.2436 30.0289 50.017 30.4555C49.7903 30.8689 49.677 31.3622 49.677 31.9355V32.4155C49.677 33.0022 49.8036 33.5222 50.057 33.9755C50.3236 34.4155 50.6903 34.7555 51.157 34.9955C51.637 35.2222 52.197 35.3355 52.837 35.3355C53.4103 35.3355 53.9103 35.2489 54.337 35.0755C54.777 34.9022 55.177 34.6422 55.537 34.2955L57.197 36.0955C56.7036 36.6555 56.0836 37.0889 55.337 37.3955C54.5903 37.6889 53.7303 37.8355 52.757 37.8355ZM61.1988 37.6755L57.3188 26.9155H60.2588L63.4788 36.1755H62.0788L65.4388 26.9155H68.0788L71.3388 36.1755H69.9388L73.2588 26.9155H76.0188L72.1188 37.6755H69.0988L66.2388 29.7355H67.1588L64.1988 37.6755H61.1988ZM81.1534 37.6755V23.6755H83.8334L89.7934 33.5555H88.3734L94.2334 23.6755H96.8934L96.9334 37.6755H93.8934L93.8734 28.3355H94.4334L89.7534 36.1955H88.2934L83.5134 28.3355H84.1934V37.6755H81.1534ZM100.295 41.7155C99.7349 41.7155 99.1816 41.6289 98.6349 41.4555C98.0883 41.2822 97.6416 41.0422 97.2949 40.7355L98.4349 38.5155C98.6749 38.7289 98.9483 38.8955 99.2549 39.0155C99.5749 39.1355 99.8883 39.1955 100.195 39.1955C100.635 39.1955 100.982 39.0889 101.235 38.8755C101.502 38.6755 101.742 38.3355 101.955 37.8555L102.515 36.5355L102.755 36.1955L106.615 26.9155H109.615L104.755 38.3355C104.408 39.2022 104.008 39.8822 103.555 40.3755C103.115 40.8689 102.622 41.2155 102.075 41.4155C101.542 41.6155 100.948 41.7155 100.295 41.7155ZM102.135 38.0955L97.3349 26.9155H100.555L104.275 35.9155L102.135 38.0955ZM117.932 37.6755L113.352 23.6755H116.712L120.692 36.0755H119.012L123.172 23.6755H126.172L130.172 36.0755H128.552L132.632 23.6755H135.732L131.152 37.6755H127.672L124.132 26.7955H125.052L121.412 37.6755H117.932ZM140.54 37.8355C139.393 37.8355 138.373 37.5955 137.48 37.1155C136.6 36.6355 135.9 35.9822 135.38 35.1555C134.873 34.3155 134.62 33.3622 134.62 32.2955C134.62 31.2155 134.873 30.2622 135.38 29.4355C135.9 28.5955 136.6 27.9422 137.48 27.4755C138.373 26.9955 139.393 26.7555 140.54 26.7555C141.673 26.7555 142.687 26.9955 143.58 27.4755C144.473 27.9422 145.173 28.5889 145.68 29.4155C146.187 30.2422 146.44 31.2022 146.44 32.2955C146.44 33.3622 146.187 34.3155 145.68 35.1555C145.173 35.9822 144.473 36.6355 143.58 37.1155C142.687 37.5955 141.673 37.8355 140.54 37.8355ZM140.54 35.2755C141.06 35.2755 141.527 35.1555 141.94 34.9155C142.353 34.6755 142.68 34.3355 142.92 33.8955C143.16 33.4422 143.28 32.9089 143.28 32.2955C143.28 31.6689 143.16 31.1355 142.92 30.6955C142.68 30.2555 142.353 29.9155 141.94 29.6755C141.527 29.4355 141.06 29.3155 140.54 29.3155C140.02 29.3155 139.553 29.4355 139.14 29.6755C138.727 29.9155 138.393 30.2555 138.14 30.6955C137.9 31.1355 137.78 31.6689 137.78 32.2955C137.78 32.9089 137.9 33.4422 138.14 33.8955C138.393 34.3355 138.727 34.6755 139.14 34.9155C139.553 35.1555 140.02 35.2755 140.54 35.2755ZM147.426 37.6755V26.9155H150.406V29.9555L149.986 29.0755C150.306 28.3155 150.819 27.7422 151.526 27.3555C152.232 26.9555 153.092 26.7555 154.106 26.7555V29.6355C153.972 29.6222 153.852 29.6155 153.746 29.6155C153.639 29.6022 153.526 29.5955 153.406 29.5955C152.552 29.5955 151.859 29.8422 151.326 30.3355C150.806 30.8155 150.546 31.5689 150.546 32.5955V37.6755H147.426ZM157.46 35.4755L157.54 31.6755L162.56 26.9155H166.28L161.46 31.8155L159.84 33.1355L157.46 35.4755ZM154.88 37.6755V22.8355H158V37.6755H154.88ZM162.9 37.6755L159.26 33.1555L161.22 30.7355L166.68 37.6755H162.9Z" fill="white"/>
<path d="M193 39.6755L201 31.9613M193 39.6755L185 31.9613M193 39.6755V21.6755" stroke="white" stroke-width="2" stroke-linecap="round" stroke-linejoin="round"/>
</svg>
