<svg width="220" height="61" viewBox="0 0 220 61" fill="none" xmlns="http://www.w3.org/2000/svg">
<rect x="1" y="1.67554" width="218" height="58" rx="9" stroke="#183BAE" stroke-width="2"/>
<path d="M78.0809 39.6755V22.1755H82.1309V36.3755H90.9059V39.6755H78.0809ZM98.1449 39.8755C96.6116 39.8755 95.2616 39.5755 94.0949 38.9755C92.9449 38.3755 92.0533 37.5589 91.4199 36.5255C90.7866 35.4755 90.4699 34.2839 90.4699 32.9505C90.4699 31.6005 90.7783 30.4089 91.3949 29.3755C92.0283 28.3255 92.8866 27.5089 93.9699 26.9255C95.0533 26.3255 96.2783 26.0255 97.6449 26.0255C98.9616 26.0255 100.145 26.3089 101.195 26.8755C102.262 27.4255 103.103 28.2255 103.72 29.2755C104.337 30.3089 104.645 31.5505 104.645 33.0005C104.645 33.1505 104.637 33.3255 104.62 33.5255C104.603 33.7089 104.587 33.8839 104.57 34.0505H93.6449V31.7755H102.52L101.02 32.4505C101.02 31.7505 100.878 31.1422 100.595 30.6255C100.312 30.1089 99.9199 29.7089 99.4199 29.4255C98.9199 29.1255 98.3366 28.9755 97.6699 28.9755C97.0033 28.9755 96.4116 29.1255 95.8949 29.4255C95.3949 29.7089 95.0033 30.1172 94.7199 30.6505C94.4366 31.1672 94.2949 31.7839 94.2949 32.5005V33.1005C94.2949 33.8339 94.4533 34.4839 94.7699 35.0505C95.1033 35.6005 95.5616 36.0255 96.1449 36.3255C96.7449 36.6089 97.4449 36.7505 98.2449 36.7505C98.9616 36.7505 99.5866 36.6422 100.12 36.4255C100.67 36.2089 101.17 35.8839 101.62 35.4505L103.695 37.7005C103.078 38.4005 102.303 38.9422 101.37 39.3255C100.437 39.6922 99.3616 39.8755 98.1449 39.8755ZM111.366 39.8755C109.783 39.8755 108.55 39.4755 107.666 38.6755C106.783 37.8589 106.341 36.6505 106.341 35.0505V23.2505H110.241V35.0005C110.241 35.5672 110.391 36.0089 110.691 36.3255C110.991 36.6255 111.4 36.7755 111.916 36.7755C112.533 36.7755 113.058 36.6089 113.491 36.2755L114.541 39.0255C114.141 39.3089 113.658 39.5255 113.091 39.6755C112.541 39.8089 111.966 39.8755 111.366 39.8755ZM104.266 29.5255V26.5255H113.591V29.5255H104.266ZM114.681 29.4255L116.331 23.4255L116.881 25.7005C116.164 25.7005 115.572 25.4922 115.106 25.0755C114.656 24.6422 114.431 24.0589 114.431 23.3255C114.431 22.6089 114.664 22.0339 115.131 21.6005C115.597 21.1505 116.172 20.9255 116.856 20.9255C117.556 20.9255 118.131 21.1505 118.581 21.6005C119.031 22.0339 119.256 22.6089 119.256 23.3255C119.256 23.5422 119.239 23.7589 119.206 23.9755C119.189 24.1755 119.131 24.4172 119.031 24.7005C118.947 24.9839 118.806 25.3589 118.606 25.8255L117.156 29.4255H114.681ZM124.609 39.8755C123.459 39.8755 122.351 39.7422 121.284 39.4755C120.234 39.1922 119.401 38.8422 118.784 38.4255L120.084 35.6255C120.701 36.0089 121.426 36.3255 122.259 36.5755C123.109 36.8089 123.943 36.9255 124.759 36.9255C125.659 36.9255 126.293 36.8172 126.659 36.6005C127.043 36.3839 127.234 36.0839 127.234 35.7005C127.234 35.3839 127.084 35.1505 126.784 35.0005C126.501 34.8339 126.118 34.7089 125.634 34.6255C125.151 34.5422 124.618 34.4589 124.034 34.3755C123.468 34.2922 122.893 34.1839 122.309 34.0505C121.726 33.9005 121.193 33.6839 120.709 33.4005C120.226 33.1172 119.834 32.7339 119.534 32.2505C119.251 31.7672 119.109 31.1422 119.109 30.3755C119.109 29.5255 119.351 28.7755 119.834 28.1255C120.334 27.4755 121.051 26.9672 121.984 26.6005C122.918 26.2172 124.034 26.0255 125.334 26.0255C126.251 26.0255 127.184 26.1255 128.134 26.3255C129.084 26.5255 129.876 26.8172 130.509 27.2005L129.209 29.9755C128.559 29.5922 127.901 29.3339 127.234 29.2005C126.584 29.0505 125.951 28.9755 125.334 28.9755C124.468 28.9755 123.834 29.0922 123.434 29.3255C123.034 29.5589 122.834 29.8589 122.834 30.2255C122.834 30.5589 122.976 30.8089 123.259 30.9755C123.559 31.1422 123.951 31.2755 124.434 31.3755C124.918 31.4755 125.443 31.5672 126.009 31.6505C126.593 31.7172 127.176 31.8255 127.759 31.9755C128.343 32.1255 128.868 32.3422 129.334 32.6255C129.818 32.8922 130.209 33.2672 130.509 33.7505C130.809 34.2172 130.959 34.8339 130.959 35.6005C130.959 36.4339 130.709 37.1755 130.209 37.8255C129.709 38.4589 128.984 38.9589 128.034 39.3255C127.101 39.6922 125.959 39.8755 124.609 39.8755ZM141.596 39.6755V25.4755H135.996V22.1755H151.246V25.4755H145.646V39.6755H141.596ZM159.341 39.6755V37.0505L159.091 36.4755V31.7755C159.091 30.9422 158.833 30.2922 158.316 29.8255C157.816 29.3589 157.041 29.1255 155.991 29.1255C155.274 29.1255 154.566 29.2422 153.866 29.4755C153.183 29.6922 152.599 29.9922 152.116 30.3755L150.716 27.6505C151.449 27.1339 152.333 26.7339 153.366 26.4505C154.399 26.1672 155.449 26.0255 156.516 26.0255C158.566 26.0255 160.158 26.5089 161.291 27.4755C162.424 28.4422 162.991 29.9505 162.991 32.0005V39.6755H159.341ZM155.241 39.8755C154.191 39.8755 153.291 39.7005 152.541 39.3505C151.791 38.9839 151.216 38.4922 150.816 37.8755C150.416 37.2589 150.216 36.5672 150.216 35.8005C150.216 35.0005 150.408 34.3005 150.791 33.7005C151.191 33.1005 151.816 32.6339 152.666 32.3005C153.516 31.9505 154.624 31.7755 155.991 31.7755H159.566V34.0505H156.416C155.499 34.0505 154.866 34.2005 154.516 34.5005C154.183 34.8005 154.016 35.1755 154.016 35.6255C154.016 36.1255 154.208 36.5255 154.591 36.8255C154.991 37.1089 155.533 37.2505 156.216 37.2505C156.866 37.2505 157.449 37.1005 157.966 36.8005C158.483 36.4839 158.858 36.0255 159.091 35.4255L159.691 37.2255C159.408 38.0922 158.891 38.7505 158.141 39.2005C157.391 39.6505 156.424 39.8755 155.241 39.8755ZM165.146 39.6755V21.1255H169.046V39.6755H165.146ZM174.515 36.9255L174.615 32.1755L180.89 26.2255H185.54L179.515 32.3505L177.49 34.0005L174.515 36.9255ZM171.29 39.6755V21.1255H175.19V39.6755H171.29ZM181.315 39.6755L176.765 34.0255L179.215 31.0005L186.04 39.6755H181.315Z" fill="#04142B"/>
<path d="M56 23.1755C56 21.8005 54.83 20.6755 53.4 20.6755H32.6C31.17 20.6755 30 21.8005 30 23.1755V38.1755C30 39.5505 31.17 40.6755 32.6 40.6755H53.4C54.83 40.6755 56 39.5505 56 38.1755V23.1755ZM53.4 23.1755L43 29.4255L32.6 23.1755H53.4ZM53.4 38.1755H32.6V25.6755L43 31.9255L53.4 25.6755V38.1755Z" fill="black"/>
</svg>
